<svg height="70pt" preserveAspectRatio="xMidYMid meet" viewBox="0 0 70 70" width="70pt" xmlns="http://www.w3.org/2000/svg"><path d="m318 635c-2-2-25-5-52-9-80-9-135-50-176-130-31-62-35-77-38-170-4-95-2-107 23-159 49-104 142-154 269-144 165 13 298 125 309 262 11 132-68 273-180 320-33 14-148 36-155 30zm74-30c80-18 169-85 147-111-6-8-18-14-26-14s-23-5-33-10c-15-8-17-15-11-33 8-21 7-23-18-19-36 5-91-29-106-65-24-56 20-104 76-84 37 13 49 8 74-32 16-24 27-31 46-29s28-3 38-24c11-24 9-30-16-56-31-33-130-84-141-74-13 14-8 31 20 70 15 22 28 45 28 51 0 27-39 46-99 49-60 2-101 23-101 51 0 19-54 95-67 95-7 0-15-11-19-25-6-24-33-55-35-39-2 30-10 51-28 75-29 39-32 72-10 116 49 100 146 137 281 108zm-115-569c13-13-62 17-77 31-10 9-1 8 28-5 23-10 45-22 49-26z" transform="matrix(.1 0 0 -.1 0 70)"/></svg>